<?xml version="1.0" standalone="no"?>
<!DOCTYPE svg PUBLIC "-//W3C//DTD SVG 20010904//EN"
 "http://www.w3.org/TR/2001/REC-SVG-20010904/DTD/svg10.dtd">
<svg version="1.0" xmlns="http://www.w3.org/2000/svg"
 width="256.000000pt" height="256.000000pt" viewBox="0 0 256.000000 256.000000"
 preserveAspectRatio="xMidYMid meet">
<metadata>
Created by potrace 1.15, written by Peter Selinger 2001-2017
</metadata>
<g transform="translate(0.000000,256.000000) scale(0.100000,-0.100000)"
fill="#000000" stroke="none">
<path d="M1225 2375 c-24 -23 -25 -31 -25 -135 0 -104 1 -112 25 -135 15 -16
36 -25 55 -25 19 0 40 9 55 25 24 23 25 31 25 135 0 104 -1 112 -25 135 -15
16 -36 25 -55 25 -19 0 -40 -9 -55 -25z"/>
<path d="M703 2234 c-33 -34 -28 -66 28 -162 45 -77 79 -112 111 -112 26 0 78
53 78 80 0 29 -97 198 -121 210 -31 17 -69 11 -96 -16z"/>
<path d="M1759 2250 c-23 -13 -119 -183 -119 -210 0 -27 52 -80 78 -80 32 0
66 35 111 112 56 96 61 128 28 162 -27 27 -68 33 -98 16z"/>
<path d="M1145 1904 c-244 -52 -438 -249 -489 -497 -20 -96 -20 -158 0 -254
52 -252 246 -446 496 -497 97 -20 159 -20 256 0 250 51 444 245 496 497 20 96
20 158 0 255 -71 347 -411 569 -759 496z m237 -155 c212 -45 378 -251 378
-469 0 -258 -222 -480 -480 -480 -258 0 -480 222 -480 480 0 256 216 475 472
479 31 1 81 -4 110 -10z"/>
<path d="M326 1857 c-27 -27 -33 -65 -16 -96 12 -24 181 -121 210 -121 27 0
80 52 80 78 0 32 -35 66 -112 111 -96 56 -128 61 -162 28z"/>
<path d="M2140 1867 c-135 -72 -180 -109 -180 -149 0 -26 53 -78 80 -78 29 0
198 97 210 121 17 31 11 69 -15 94 -27 28 -58 31 -95 12z"/>
<path d="M185 1335 c-16 -15 -25 -36 -25 -55 0 -19 9 -40 25 -55 23 -24 31
-25 135 -25 104 0 112 1 135 25 33 32 33 78 0 110 -23 24 -31 25 -135 25 -104
0 -112 -1 -135 -25z"/>
<path d="M2105 1335 c-16 -15 -25 -36 -25 -55 0 -19 9 -40 25 -55 23 -24 31
-25 135 -25 104 0 112 1 135 25 16 15 25 36 25 55 0 19 -9 40 -25 55 -23 24
-31 25 -135 25 -104 0 -112 -1 -135 -25z"/>
<path d="M410 870 c-47 -28 -91 -58 -97 -67 -21 -28 -15 -72 13 -100 34 -33
66 -28 162 28 77 45 112 79 112 111 0 27 -54 78 -82 78 -13 0 -61 -23 -108
-50z"/>
<path d="M1989 891 c-53 -53 -32 -93 83 -160 96 -56 128 -61 162 -28 27 27 33
65 16 96 -12 24 -181 121 -210 121 -12 0 -35 -13 -51 -29z"/>
<path d="M798 581 c-32 -25 -108 -156 -115 -198 -10 -58 61 -103 116 -73 24
12 121 181 121 210 0 27 -52 80 -78 80 -11 0 -30 -9 -44 -19z"/>
<path d="M1669 571 c-16 -16 -29 -39 -29 -51 0 -29 97 -198 121 -210 31 -17
69 -11 96 16 33 34 28 66 -28 162 -67 115 -107 136 -160 83z"/>
<path d="M1225 455 c-24 -23 -25 -31 -25 -135 0 -104 1 -112 25 -135 15 -16
36 -25 55 -25 19 0 40 9 55 25 24 23 25 31 25 135 0 104 -1 112 -25 135 -15
16 -36 25 -55 25 -19 0 -40 -9 -55 -25z"/>
</g>
</svg>
